HIERARCHY
ROOT Pelvis
{
	OFFSET 0.000000 0.000000 0.000000
	CHANNELS 6 Xposition Yposition Zposition Xrotation Yrotation Zrotation
	JOINT LeftUpLeg_virtual
	{
		OFFSET 0.000000 0.000000 0.000000
		CHANNELS 3 Xrotation Yrotation Zrotation
		JOINT LeftUpLeg
		{
			OFFSET 18.735201 -5.666702 -4.541200
			CHANNELS 3 Xrotation Yrotation Zrotation
			JOINT LeftLeg
			{
				OFFSET -0.021200 -31.938179 0.493100
				CHANNELS 3 Xrotation Yrotation Zrotation
				JOINT LeftFoot
				{
					OFFSET 0.021200 -31.938179 -4.336299
					CHANNELS 3 Xrotation Yrotation Zrotation
					JOINT LeftToeBase
					{
						OFFSET 0.943001 -26.722000 15.023500
						CHANNELS 3 Xrotation Yrotation Zrotation
						End Site
						{
							OFFSET 0 0 0
						}
					}
				}
			}
		}
	}
	JOINT RightUpLeg_virtual
	{
		OFFSET 0.000000 0.000000 0.000000
		CHANNELS 3 Xrotation Yrotation Zrotation
		JOINT RightUpLeg
		{
			OFFSET -18.735201 -5.666702 -4.541200
			CHANNELS 3 Xrotation Yrotation Zrotation
			JOINT RightLeg
			{
				OFFSET 0.018946 -31.938133 0.493100
				CHANNELS 3 Xrotation Yrotation Zrotation
				JOINT RightFoot
				{
					OFFSET -0.018946 -31.938126 -4.336299
					CHANNELS 3 Xrotation Yrotation Zrotation
					JOINT RightToeBase
					{
						OFFSET -0.943001 -26.722004 15.023500
						CHANNELS 3 Xrotation Yrotation Zrotation
						End Site
						{
							OFFSET 0 0 0
						}
					}
				}
			}
		}
	}
	JOINT Hips_virtual
	{
		OFFSET 0.000000 0.000000 0.000000
		CHANNELS 3 Xrotation Yrotation Zrotation
		JOINT Hips
		{
			OFFSET -0.000000 -0.000000 -0.000000
			CHANNELS 3 Xrotation Yrotation Zrotation
			JOINT Spine
			{
				OFFSET 0.000000 10.199997 -0.299500
				CHANNELS 3 Xrotation Yrotation Zrotation
				JOINT Spine1
				{
					OFFSET 0.000000 11.900002 -1.516600
					CHANNELS 3 Xrotation Yrotation Zrotation
					JOINT Spine2
					{
						OFFSET 0.000000 13.600006 -2.842500
						CHANNELS 3 Xrotation Yrotation Zrotation
						JOINT Neck_virtual
						{
							OFFSET 0.000000 0.000000 0.000000
							CHANNELS 3 Xrotation Yrotation Zrotation
							JOINT Neck
							{
								OFFSET 0.000000 9.624100 -2.890100
								CHANNELS 3 Xrotation Yrotation Zrotation
								JOINT Head
								{
									OFFSET 0.000000 14.068802 -1.351900
									CHANNELS 3 Xrotation Yrotation Zrotation
									End Site
									{
										OFFSET 0 0 0
									}
								}
							}
						}
						JOINT LeftShoulder_virtual
						{
							OFFSET 0.000000 0.000000 0.000000
							CHANNELS 3 Xrotation Yrotation Zrotation
							JOINT LeftShoulder
							{
								OFFSET 15.263000 10.923401 -0.547700
								CHANNELS 3 Xrotation Yrotation Zrotation
								JOINT LeftArm
								{
									OFFSET 25.438599 -2.830597 -13.032500
									CHANNELS 3 Xrotation Yrotation Zrotation
									JOINT LeftForeArm
									{
										OFFSET 29.960503 0.000000 0.000000
										CHANNELS 3 Xrotation Yrotation Zrotation
										JOINT LeftHand
										{
											OFFSET 27.849251 0.000000 0.000000
											CHANNELS 3 Xrotation Yrotation Zrotation
											End Site
											{
												OFFSET 0 0 0
											}
										}
									}
								}
							}
						}
						JOINT RightShoulder_virtual
						{
							OFFSET 0.000000 0.000000 0.000000
							CHANNELS 3 Xrotation Yrotation Zrotation
							JOINT RightShoulder
							{
								OFFSET -15.263000 10.923401 -0.547700
								CHANNELS 3 Xrotation Yrotation Zrotation
								JOINT RightArm
								{
									OFFSET -25.438599 -2.830597 -13.032500
									CHANNELS 3 Xrotation Yrotation Zrotation
									JOINT RightForeArm
									{
										OFFSET -29.960503 0.000000 0.000000
										CHANNELS 3 Xrotation Yrotation Zrotation
										JOINT RightHand
										{
											OFFSET -27.849251 0.000000 0.000000
											CHANNELS 3 Xrotation Yrotation Zrotation
											End Site
											{
												OFFSET 0 0 0
											}
										}
									}
								}
							}
						}
					}
				}
			}
		}
	}
}
MOTION
Frames: 4
Frame Time: 0.03333333
1.779682 7.728043 2.735199 0.000000 0.000000 0.000000 93.135613 1.625705 2.860359 -24.990708 8.507569 15.664559 26.972260 10.641261 -0.101156 52.762211 30.614086 -20.016178 0.000000 0.000000 0.000000 94.935081 2.181746 1.275500 -23.383267 -7.987145 -15.804534 28.763914 -11.062390 1.652420 48.557362 -29.186365 25.762242 0.000000 0.000000 0.000000 91.885094 2.093113 3.574937 -1.305653 0.062519 -1.723328 1.009345 -0.966269 -0.434325 1.416912 -0.764635 -0.143084 0.000000 0.000000 0.000000 0.243218 0.156460 -0.107551 -1.916847 -5.852557 2.947337 0.000000 0.000000 0.000000 1.196065 0.298672 -0.392644 3.253453 -22.639553 -2.385851 11.163785 -17.426053 -63.871817 -0.523872 -22.366993 0.060702 0.000000 0.000000 0.000000 0.260583 0.429184 -0.482415 1.187878 17.373467 9.702408 15.448034 -2.740876 53.327388 1.043614 36.603749 -0.360474 0.000000 0.000000 0.000000 
1.778660 7.729797 2.731098 0.000000 0.000000 0.000000 93.132047 1.624925 2.863572 -24.977169 8.505109 15.661229 26.968613 10.642590 -0.099972 52.764516 30.609937 -20.018702 0.000000 0.000000 0.000000 94.934787 2.182384 1.277451 -23.375409 -7.986712 -15.805720 28.757630 -11.061914 1.649028 48.571903 -29.178138 25.764128 0.000000 0.000000 0.000000 91.881344 2.089644 3.580430 -1.305847 0.060445 -1.724829 1.012805 -0.962398 -0.433654 1.417827 -0.765189 -0.143191 0.000000 0.000000 0.000000 0.242047 0.156878 -0.105723 -1.915483 -5.852716 2.947057 0.000000 0.000000 0.000000 1.190250 0.298247 -0.392461 3.249540 -22.635990 -2.396152 11.155403 -17.435419 -63.873334 -0.530543 -22.345205 0.061567 0.000000 0.000000 0.000000 0.263610 0.429054 -0.483339 1.182717 17.370860 9.707275 15.439960 -2.792746 53.338709 1.048928 36.579966 -0.361140 0.000000 0.000000 0.000000 
1.776852 7.736496 2.728142 0.000000 0.000000 0.000000 93.121378 1.631953 2.862726 -24.961596 8.497185 15.652596 26.970254 10.649533 -0.095600 52.770970 30.611856 -20.018805 0.000000 0.000000 0.000000 94.929200 2.190674 1.275547 -23.354485 -7.991961 -15.810935 28.751391 -11.069620 1.646240 48.576944 -29.174675 25.770201 0.000000 0.000000 0.000000 91.872635 2.091407 3.583781 -1.307685 0.058434 -1.721842 1.017773 -0.955028 -0.435176 1.419333 -0.765928 -0.142040 0.000000 0.000000 0.000000 0.240763 0.157156 -0.101820 -1.912806 -5.851694 2.945331 0.000000 0.000000 0.000000 1.184775 0.297351 -0.389647 3.248948 -22.654689 -2.410695 11.115547 -17.440388 -63.883101 -0.529253 -22.295464 0.067892 0.000000 0.000000 0.000000 0.265392 0.429852 -0.481632 1.176227 17.369017 9.702170 15.391725 -2.864583 53.368247 1.053811 36.520646 -0.360727 0.000000 0.000000 0.000000 
1.774737 7.745399 2.727421 0.000000 0.000000 0.000000 93.101537 1.646698 2.857489 -24.950415 8.485183 15.639446 26.980291 10.659156 -0.089696 52.774293 30.617774 -20.018113 0.000000 0.000000 0.000000 94.916584 2.206796 1.268753 -23.321910 -8.001220 -15.820622 28.743728 -11.084263 1.645987 48.568181 -29.172721 25.784837 0.000000 0.000000 0.000000 91.857363 2.099749 3.582906 -1.307884 0.058118 -1.715151 1.023597 -0.945210 -0.437417 1.421527 -0.766353 -0.140153 0.000000 0.000000 0.000000 0.238983 0.157065 -0.096686 -1.909078 -5.849549 2.941982 0.000000 0.000000 0.000000 1.181081 0.295936 -0.384729 3.252845 -22.694851 -2.426317 11.054688 -17.442539 -63.897226 -0.521136 -22.220422 0.077844 0.000000 0.000000 0.000000 0.266574 0.430650 -0.477175 1.170584 17.370733 9.685009 15.313279 -2.946297 53.402896 1.057628 36.444899 -0.357604 0.000000 0.000000 0.000000 
